<svg width="188" height="196" viewBox="0 0 188 196" fill="none" xmlns="http://www.w3.org/2000/svg">
<path fill-rule="evenodd" clip-rule="evenodd" d="M180.923 73.1161C180.628 74.3726 179.899 74.9898 178.659 75.289C176.612 75.7817 174.368 75.8583 172.28 76.1127C168.465 76.5788 164.52 76.7724 160.777 77.6789C157.274 78.527 153.771 79.7941 150.608 81.5349C151.642 76.5773 152.815 71.7617 152.381 66.6553C152.061 62.9063 151.973 57.2578 148.193 55.0903C147.318 54.5877 145.932 54.7775 144.96 54.7251C143.695 54.6576 142.428 54.5976 141.163 54.5277C138.661 54.3896 136.171 54.1253 133.675 53.8809C128.755 53.3988 123.871 52.8006 118.981 52.0801C118.173 51.9609 116.721 52.0505 116.18 51.3474C115.78 50.8304 115.971 50.0135 116.001 49.4327C116.103 47.4254 116.023 45.4241 115.774 43.4297C115.23 39.065 114.028 34.7694 112.684 30.5923C112.003 28.4809 111.275 26.3855 110.589 24.2757C110.259 23.2561 109.49 21.8652 110.589 21.1349C111.275 20.6786 112.473 20.6824 113.271 20.4827C114.221 20.2458 115.146 19.9353 116.075 19.6294C118.267 18.9066 120.457 18.174 122.647 17.4429C130.971 14.6634 139.368 12.0684 147.667 9.23432C148.829 8.83802 149.982 8.42275 151.143 8.02645C151.646 7.85562 152.52 7.41451 153.062 7.65214C153.695 7.93153 153.572 8.63076 154.027 9.04681C154.424 9.40971 155.323 9.43627 155.835 9.7316C157.133 10.4825 157.946 11.7921 158.965 12.8489C160.276 14.2086 161.741 15.4029 163.035 16.7877C168.258 22.3769 172.123 29.1058 175.394 35.9872C176.275 37.8404 176.848 39.7582 177.398 41.7298C177.919 43.5959 178.585 45.4203 178.881 47.3419C179.57 51.828 179.595 56.444 180.148 60.959C180.61 64.7428 181.815 69.3254 180.923 73.1161ZM147.745 62.983C147.734 65.9712 147.577 68.9792 146.924 71.9036C146.252 74.9192 145.036 77.8065 143.952 80.6899C142.929 83.4109 142.102 86.2162 140.915 88.8711C139.745 91.4912 138.245 93.8788 137.306 96.5983C135.38 102.174 132.081 107.066 129.746 112.451C127.361 117.954 124.704 123.209 121.74 128.426C120.33 130.908 119.022 133.654 117.24 135.889C116.355 136.999 115.343 138.105 114.32 139.087C113.428 139.944 113 139.29 111.921 139.484C110.348 139.767 109.537 141.813 108.519 142.865C106.59 144.858 104.62 146.827 102.507 148.624C100.343 150.463 97.9518 152.001 95.7319 153.771C93.6134 155.462 91.4972 156.989 89.0754 158.222C84.2929 160.657 78.7947 163.644 73.2769 163.388C70.7377 163.27 69.3781 161.614 68.3143 159.402C67.1885 157.061 67.5683 154.255 67.7574 151.744C67.9837 148.731 68.71 146.074 70.3124 143.519C71.8922 140.999 70.3351 139.436 68.7607 137.336C65.2478 132.649 60.5667 128.999 56.2972 125.039C54.0933 122.993 51.9082 120.926 49.7246 118.858C48.5179 117.715 47.3126 116.571 46.1081 115.427C45.2244 114.588 44.3732 114.021 44.0547 112.843C46.4569 111.545 48.9612 110.439 51.175 108.815C55.6942 105.502 59.8411 101.459 64.1008 97.8138C66.1474 96.0623 67.7642 93.8925 69.4083 91.7751C70.9949 89.7313 72.813 87.8014 74.1825 85.5967C77.1272 80.8539 80.4857 76.1575 82.8206 71.0723C83.9842 68.5381 84.5857 65.9522 85.1948 63.2457C85.5617 61.6157 85.9839 59.9986 86.3955 58.3792C86.6611 57.336 86.7375 55.5375 87.404 54.675C88.632 53.0868 92.4899 55.6521 93.9033 56.1031C96.5635 56.9511 99.3356 57.3543 102.087 57.7809C107.922 58.6851 113.799 59.458 119.597 60.5801C122.635 61.1677 125.68 61.8191 128.763 62.1266C131.751 62.425 134.755 62.2693 137.75 62.2473C138.391 62.242 139.174 62.3559 139.605 61.766C139.85 61.4281 139.686 61.0091 140.08 60.6932C140.594 60.2817 141.266 60.5027 141.856 60.5657C143.055 60.694 144.257 60.7669 145.455 60.9164C145.972 60.981 147.001 60.8929 147.442 61.1662C147.908 61.454 147.747 62.3217 147.745 62.983ZM63.7512 143.21C62.3546 146.032 61.548 149.98 61.5057 153.106C61.483 154.784 61.7039 156.458 62.0474 158.098C62.3455 159.528 63.1626 161.174 62.9061 162.615C59.3637 160.973 55.8834 159.207 52.2706 157.725C49.1489 156.445 46.8042 154.216 44.2355 152.099C41.477 149.826 38.9802 147.293 36.3298 144.899C33.4858 142.33 30.5191 139.9 27.6267 137.388C22.4765 132.915 18.1525 127.888 13.9247 122.543C10.2083 117.845 4.8795 111.853 5.12918 105.497C5.24645 102.547 5.46211 99.1918 6.9057 96.5513C8.10415 94.3579 10.2733 91.8988 12.301 90.432C14.2508 89.0214 16.1649 92.5654 17.2613 93.8105C19.6218 96.4905 22.0293 99.1272 24.424 101.776C28.9787 106.815 33.3012 112.105 38.2274 116.789C43.1929 121.509 48.2697 126.125 53.6166 130.404C56.2934 132.546 59.2427 134.543 61.6721 136.968C62.5642 137.86 64.296 138.84 64.8914 139.953C65.53 141.151 64.2498 142.202 63.7512 143.21ZM185.62 73.6324C184.869 73.5352 184.905 73.6369 184.841 72.899C184.742 71.7556 185.128 70.4057 185.244 69.2601C185.797 63.8083 185.533 58.096 185.058 52.6434C184.127 41.9341 181.925 31.4046 176.339 22.115C173.761 17.8263 170.845 13.782 167.19 10.345C165.505 8.76134 163.86 7.0554 161.996 5.68048C161.061 4.98961 159.7 4.64115 158.849 3.93433C158.389 3.55169 158.185 2.77273 157.797 2.28456C156.247 0.337196 154.496 -0.165402 152.024 0.0441396C149.458 0.26279 146.77 1.06908 144.295 1.75692C139.03 3.22143 133.98 5.71009 128.879 7.67415C123.756 9.64656 118.69 11.7488 113.638 13.8943C111.441 14.8266 108.79 15.5593 106.84 16.9668C105.662 17.8171 105.316 18.8732 105.442 20.2876C105.89 25.2847 107.74 30.2476 109.147 35.0276C110.659 40.1605 111.891 45.3907 112.276 50.7416C107.057 50.3582 101.869 49.9604 96.6731 49.3021C94.0742 48.9726 91.4617 48.7031 88.8681 48.3455C87.5266 48.161 86.9009 47.6585 85.8228 46.9607C84.8763 46.3481 84.3882 46.8666 83.9842 47.7981C81.8831 52.6381 81.0554 57.9176 78.7796 62.7226C77.7582 64.8803 76.4826 66.8944 75.4203 69.0308C74.265 71.3532 72.8713 73.6392 71.4231 75.7878C70.7505 76.7853 69.8873 77.5924 69.142 78.5277C68.4513 79.394 67.9549 80.3908 67.3209 81.2973C65.9946 83.1915 64.3875 84.861 62.7608 86.4941C61.1281 88.1332 59.546 89.7966 57.9867 91.5048C56.4531 93.1842 54.6229 94.5477 53.0023 96.1337C51.477 97.6255 50.1491 99.2502 48.5844 100.712C47.0773 102.122 46.3714 104.077 44.75 105.344C43.8761 106.028 42.9062 106.577 42.0361 107.265C41.3173 107.834 40.5668 108.828 39.5461 108.638C38.4135 108.425 37.5026 106.899 36.7944 106.112C35.8812 105.098 34.9619 104.089 34.0365 103.086C30.4034 99.1432 26.6772 95.2781 23.013 91.3613C21.2221 89.4459 19.2519 87.7088 17.5064 85.75C16.2338 84.3227 14.1524 83.3062 12.3706 84.2833C10.5737 85.2679 8.41509 86.1372 6.96015 87.6162C5.3834 89.2181 4.12595 91.3013 2.842 93.1401C1.50433 95.0548 0.973933 97.3165 0.623628 99.5926C0.251381 102.018 -0.136724 104.422 0.0471292 106.884C0.397434 111.545 1.26148 116.746 3.95043 120.671C5.23135 122.542 6.98666 123.947 8.5566 125.556C10.2567 127.301 11.4718 129.401 12.8737 131.381C15.686 135.353 19.1407 138.91 22.6642 142.252C24.3446 143.845 26.2474 145.189 27.9369 146.788C29.7398 148.496 31.5663 150.036 33.6008 151.457C35.6822 152.909 37.4011 154.8 39.2821 156.489C41.2189 158.228 43.202 159.849 45.3341 161.34C49.4243 164.199 53.5833 166.061 58.3386 167.499C63.5765 169.083 68.6464 171.155 73.8556 172.811C76.3516 173.604 78.822 172.507 81.1992 171.705C83.6233 170.887 86.0021 169.916 88.234 168.655C92.7615 166.097 97.1097 163.128 101.563 160.433C106.195 157.631 110.063 154.419 113.602 150.317C116.974 146.407 120.543 142.526 123.614 138.374C129.848 129.941 133.619 119.966 138.246 110.628C140.706 105.665 143.199 100.778 145.245 95.6205C146.251 93.0832 147.151 90.5004 148.179 87.9722C148.614 86.901 148.973 86.4842 150.139 86.302C151.486 86.0909 152.863 85.9983 154.215 85.8366C159.566 85.1973 164.79 84.2476 170.094 83.3297C175.015 82.4786 179.967 81.5987 184.367 79.0918C185.293 78.5642 186.403 77.9447 186.907 76.9592C187.136 76.509 187.7 74.2276 187.381 73.8624C187.195 73.6483 185.94 73.6741 185.62 73.6324Z" fill="black"/>
<path fill-rule="evenodd" clip-rule="evenodd" d="M144.244 165.445C145.981 163.351 147.122 160.333 148.385 157.918C149.737 155.333 150.99 152.941 151.563 150.062C151.839 148.676 152.004 147.259 152.319 145.884C152.617 144.583 153.042 143.436 152.92 142.077C152.793 140.658 152.134 136.385 149.984 136.856C148.734 137.131 148.985 138.471 148.978 139.451C148.969 140.573 148.839 141.691 148.509 142.766C147.73 145.307 145.876 147.548 144.702 149.932C143.565 152.243 142.217 154.347 140.515 156.283C138.878 158.146 137.048 159.911 135.127 161.478C133.44 162.855 131.404 163.896 130.176 165.763C129.442 166.881 129.319 167.216 127.969 167.524C126.88 167.773 125.857 168.172 124.94 168.824C123.901 169.562 123.163 170.446 121.948 170.931C120.89 171.355 119.771 171.606 118.703 172.002C116.235 172.915 114.079 174.457 111.557 175.321C110.252 175.768 108.926 176.15 107.606 176.546C106.55 176.864 105.3 177.081 104.426 177.797C102.958 178.999 102.136 182.068 103.42 183.666C104.802 185.387 108.043 184.311 109.841 184.091C109.864 184.208 109.886 184.326 109.91 184.443C112.938 183.833 116.094 183.473 119.037 182.52C120.593 182.016 121.99 181.296 123.411 180.5C124.615 179.827 125.848 179.589 127.136 179.159C128.287 178.775 129.206 178.192 129.926 177.196C130.846 175.919 131.235 176.299 132.654 175.988C134.934 175.486 136.899 172.892 138.467 171.325C140.378 169.414 142.52 167.523 144.244 165.445Z" fill="black"/>
<path fill-rule="evenodd" clip-rule="evenodd" d="M155.901 179.706C155.154 179.522 153.913 180.349 153.358 180.715C151.147 182.176 148.859 183.525 146.623 184.948C144.563 186.259 142.531 187.61 140.504 188.97C138.816 190.102 137.709 191.494 138.303 193.633C138.574 194.608 139.023 195.752 140.153 195.193C140.982 194.782 141.698 194.383 142.609 194.06C144.904 193.245 147.219 192.441 149.362 191.266C153.076 189.232 156.555 186.083 157.053 181.647C156.777 181.019 156.697 179.902 155.901 179.706Z" fill="black"/>
</svg>
