<svg width="144" height="112" viewBox="0 0 144 112" fill="none" xmlns="http://www.w3.org/2000/svg">
<path fill-rule="evenodd" clip-rule="evenodd" d="M12.5305 26.6346C14.2396 25.7329 15.9835 24.9009 17.7205 24.0553C21.4001 22.2617 25.0237 20.3468 28.7455 18.6404C30.4304 17.8684 32.1901 17.3762 33.9203 16.7278C35.7578 16.0399 37.5145 15.1314 39.278 14.2767C42.9855 12.4785 46.7752 10.9292 50.6254 9.4685C51.8043 9.02105 52.9855 8.58118 54.1682 8.14284C55.076 7.80687 56.1802 7.16148 57.1242 7.05076C58.6219 6.87481 59.7464 8.40524 60.7667 9.32592C66.2732 14.2934 70.1604 21.6581 72.5258 28.6223C73.8165 32.4226 74.4025 36.3465 75.0913 40.2871C75.7967 44.3255 76.5459 48.2782 76.5738 52.3849C76.6018 56.5598 77.0293 60.6756 76.845 64.8604C76.7762 66.4212 77.0572 69.228 76.2007 70.5885C75.3314 71.9665 73.1541 72.3518 71.7531 72.8606C64.0913 75.6454 56.4377 78.6426 48.6648 81.0929C40.5777 83.6411 32.5073 86.2318 24.4422 88.8535C24.7707 86.5541 25.1551 84.2554 25.4126 81.9476C25.655 79.7741 25.4738 77.5255 25.4549 75.3413C25.4141 70.5415 25.257 65.7682 24.2956 61.0518C22.5487 52.4865 19.7264 44.0533 14.9941 36.6597C13.8847 34.9276 12.5623 33.3479 11.2444 31.775C10.7731 31.2122 9.19467 29.8805 9.25056 29.0144C9.32533 27.8791 11.7134 27.0661 12.5305 26.6346ZM104.465 25.7041C106.233 25.7852 107.377 26.1925 107.5 28.09C107.657 30.5085 107.623 32.958 107.709 35.3819C107.875 40.0179 108.041 44.6554 107.92 49.2952C107.706 57.4229 106.844 65.5384 104.36 73.3058C103.16 77.0606 101.724 80.7509 100.173 84.373C98.6675 87.8873 96.54 91.0475 94.6564 94.3571C93.729 95.9854 92.689 97.308 91.4104 98.6754C90.8055 99.3238 90.5276 99.6697 89.6711 99.7804C88.8034 99.8919 87.7105 99.6674 86.839 99.6044C82.7365 99.3087 78.6364 98.9007 74.5279 98.702C70.4549 98.5055 66.3645 98.6777 62.2968 98.4881C60.3853 98.3986 58.5849 97.776 56.7058 97.4726C54.8132 97.167 52.9002 97.0327 50.997 96.8174C50.016 96.7066 50.0401 96.9387 49.8913 96.0446C49.8113 95.5683 49.948 94.9525 49.9736 94.4648C50.0227 93.5252 50.0711 92.5848 50.1277 91.6459C50.1791 90.8064 50.0091 89.3328 50.3482 88.5388C50.6511 87.832 51.2983 87.7091 51.9735 87.5241C55.7618 86.482 59.4216 85.192 63.0656 83.7192C66.7837 82.2176 70.5463 80.7987 74.222 79.1932C75.8065 78.5015 77.5934 77.8683 78.7934 76.5631C79.7775 75.493 80.3432 74.1173 80.7782 72.7484C83.1731 65.2176 82.4216 56.5394 81.72 48.7826C80.9987 40.8089 79.8614 32.6259 76.9484 25.13C86.1147 25.13 95.3067 25.2824 104.465 25.7041ZM2.14908 32.5978C4.69498 33.5541 6.2991 35.783 7.78239 37.9316C9.62894 40.6102 11.3713 43.3184 12.8176 46.2412C15.8551 52.3826 17.8602 59.1497 19.0044 65.8986C20.0988 72.3411 20.641 79.5254 19.382 85.9883C19.0452 87.7167 18.1661 89.103 17.6745 90.7404C17.3437 91.8408 17.574 93.441 17.8716 94.5346C18.2991 96.103 19.7748 95.5683 21.0043 95.3142C22.7987 94.9434 24.5939 94.5763 26.3861 94.1979C33.144 92.7683 39.8353 90.2816 46.7155 89.7788C46.1295 91.6125 45.8017 93.2765 44.619 94.8486C43.5126 96.3191 42.0392 97.5932 41.4025 99.3648C40.8723 100.841 40.7703 102.907 41.3096 104.405C41.8768 105.978 43.2634 106.001 44.7179 106.177C48.8083 106.675 52.833 107.35 56.9566 107.575C57.8432 107.623 58.7276 107.723 59.6029 107.555C60.3075 107.419 60.8015 107.208 61.5137 107.34C62.457 107.514 63.2885 107.969 64.2778 108.071C65.2098 108.167 66.1486 108.136 67.0828 108.101C70.5357 107.972 73.9124 108.333 77.3691 107.995C78.3766 107.897 80.2684 107.324 81.2102 107.901C82.2048 108.511 81.4255 109.742 81.9209 110.588C82.5734 111.701 84.815 111.13 85.8987 111.07C87.4462 110.985 88.8185 110.711 90.2051 109.995C93.0093 108.549 95.5431 106.623 97.6049 104.221C99.7633 101.709 101.328 98.774 102.871 95.8595C104.481 92.8207 106.094 89.8531 107.312 86.6254C108.556 83.3279 109.775 79.9265 110.479 76.4668C111.183 73.0123 111.629 69.504 112.293 66.0397C112.987 62.426 113.108 58.7432 113.292 55.0772C113.481 51.2762 113.565 47.5411 113.327 43.7393C113.095 40.005 112.683 36.342 112.247 32.6312C112.135 31.6824 112.192 30.7003 112.042 29.7607C111.94 29.1297 111.612 28.5306 111.576 27.8897C111.504 26.6157 112.669 25.7966 112.639 24.4641C112.568 21.3691 109.285 20.2171 106.844 19.4769C103.672 18.5145 100.133 17.9344 96.8164 18.1733C89.6795 18.6875 82.3839 18.7542 75.6147 21.3661C72.1074 15.3399 68.8394 8.80263 63.0989 4.57614C62.4516 4.09835 61.7493 3.773 61.3301 3.06846C60.9721 2.46403 60.8143 1.85807 60.3355 1.31355C59.1573 -0.0257622 57.705 -0.191849 56.0563 0.158526C52.4682 0.919947 49.0402 1.75417 45.6386 3.11624C44.1281 3.72067 42.5255 4.00507 41.0083 4.59585C39.5499 5.16313 38.1557 5.87526 36.754 6.56766C33.6862 8.08444 30.5143 9.37218 27.4495 10.9011C21.2943 13.9726 15.2094 17.1919 9.5436 21.1143C6.80663 23.0095 3.66863 24.9692 1.34855 27.3748C0.32747 28.4343 -0.135528 29.7705 0.0343999 31.2327C0.211125 32.7533 0.988286 32.161 2.14908 32.5978Z" fill="black"/>
<path fill-rule="evenodd" clip-rule="evenodd" d="M135.39 51.9637C134.796 53.3937 134.506 54.9181 135.527 56.2611C137.38 58.6985 140.33 53.148 140.779 51.5987C141.752 48.24 142.972 44.8564 143.517 41.3874C144.073 37.8496 143.808 34.0457 143.897 30.4596C143.601 26.2038 143.037 21.9586 142.023 17.8184C141.126 14.1469 140.175 10.3619 137.191 7.88752C135.95 6.85815 135.098 7.6366 134.924 9.10508C134.733 10.7164 135.154 12.3375 135.886 13.7493C137.602 17.0604 137.605 20.9315 137.989 24.6333C138.752 31.9946 139.181 39.3332 137.258 46.5554C136.764 48.407 136.124 50.2005 135.39 51.9637Z" fill="black"/>
</svg>
