<svg width="88" height="134" viewBox="0 0 88 134" fill="none" xmlns="http://www.w3.org/2000/svg">
<path fill-rule="evenodd" clip-rule="evenodd" d="M77.8885 46.6665C75.803 49.3549 73.7214 52.0145 71.8581 54.867C69.9836 57.7378 68.1964 60.6653 66.3618 63.5618C64.5927 66.3569 62.6172 69.0694 61.1946 72.0665C60.3737 73.7944 60.2946 76.0695 58.0405 75.9886C55.0618 75.8826 52.2406 75.0304 49.6167 73.634C44.3568 70.8359 39.9796 66.9048 36.6952 61.9194C33.2873 56.747 30.6416 50.8951 28.7256 45.0105C27.6659 41.7568 26.8164 38.4388 26.049 35.1048C25.6588 33.414 25.2416 31.7572 25.2386 30.0112C25.2363 29.243 25.2838 28.4763 25.3237 27.7096C25.3606 26.9845 25.7635 25.7191 24.9313 25.6691C25.1799 23.5847 25.4178 21.5004 25.6732 19.4175C25.8577 17.9121 25.8456 16.2243 27.1621 15.2283C28.4213 14.2739 30.3975 14.2414 31.8812 13.9053C33.6759 13.4981 35.4556 13.0221 37.2156 12.4809C40.8261 11.3714 44.2815 9.90157 47.7662 8.4537C49.5052 7.73167 51.2465 6.99599 52.8883 6.06431C54.2447 5.29307 55.2177 4.17446 56.1373 5.93187C62.3996 17.8947 66.9741 31.3024 77.2265 40.5844C78.0557 41.3345 79.4128 42.2366 79.5348 43.4658C79.6523 44.6639 78.5505 45.8128 77.8885 46.6665ZM86.1322 38.2109C84.687 37.2172 82.8938 37.0522 81.4274 36.1349C79.7464 35.0829 78.6341 32.7116 77.4863 31.1321C74.7464 27.3629 72.0013 23.5711 69.5272 19.6181C67.2814 16.0291 65.2487 12.3099 63.091 8.66788C61.9854 6.80224 60.8444 4.98428 59.5422 3.24957C58.9879 2.51239 57.5818 -0.0949639 56.3964 0.00267056C55.7848 0.0526223 55.8097 0.648256 55.3714 0.840497C55.1454 0.938888 54.9654 0.830673 54.7448 0.860947C53.9517 0.967663 53.0894 0.565009 52.2722 0.644479C50.2531 0.841261 48.066 1.69196 46.1229 2.27928C42.0658 3.50614 38.1962 5.23253 34.2069 6.65012C30.2522 8.0556 25.8358 8.99411 22.2216 11.1814C20.7944 12.045 19.1827 13.4278 20.5842 15.1186C21.116 15.7596 21.845 15.743 22.3978 16.2402C22.8647 16.6595 22.6569 16.8911 22.5492 17.5897C22.4874 17.9893 22.4241 18.3882 22.3624 18.7878C21.7155 22.9868 21.186 27.1927 21.7697 31.4325C22.3601 35.7156 23.2556 39.9843 24.4531 44.1364C28.2338 57.2504 34.9969 72.8151 48.2867 78.627C51.3933 79.9848 54.4834 80.3064 57.761 80.9187C58.7913 81.1117 59.6642 81.5794 60.58 82.054C61.0183 82.281 61.5606 82.6473 62.0878 82.5823C63.2905 82.4339 64.2802 80.5607 64.8412 79.6745C66.9628 76.3284 69.3706 73.1875 71.5735 69.8967C72.713 68.193 73.7922 66.4469 74.7261 64.6206C75.2668 63.5641 75.6539 61.8127 77.1406 61.852C77.5413 62.3879 77.9427 62.9245 78.3434 63.4611C78.5045 63.6761 78.7463 63.9152 78.8638 64.1559C79.159 64.7614 79.1357 64.3126 79.0129 65.0286C78.8555 65.9444 78.009 66.9797 77.475 67.7018C74.348 71.9386 71.0832 76.0726 67.8048 80.1914C64.5837 84.2398 61.294 88.2587 57.52 91.8061C56.7564 92.5236 55.9196 93.3992 54.8035 93.4477C53.7717 93.4923 52.642 92.9504 51.6185 92.771C49.3938 92.382 47.1088 92.2927 44.939 91.6184C43.8108 91.268 42.8679 90.614 41.6998 90.5345C40.7169 90.4664 40.0474 90.303 39.1858 89.7807C37.2367 88.6008 35.07 87.9529 33.099 86.8381C29.0344 84.5403 24.8342 81.1268 21.8548 77.5227C20.3109 75.6548 19.0441 73.575 17.5288 71.6843C16.0564 69.8452 14.6029 68.0189 13.315 66.0405C10.7755 62.1404 8.75482 57.9141 7.21843 53.5183C6.42011 51.2349 6.02246 49.7439 8.00771 48.0735C9.88 46.4985 11.6333 44.8523 13.193 42.9587C13.9514 42.0353 17.4128 38.6492 14.8213 38.0861C13.4175 37.7803 11.1761 40.1546 10.121 41.0151C8.40311 42.4168 6.71911 43.7753 4.73159 44.7789C2.48124 45.915 2.43982 47.3568 2.4722 49.7166C2.53998 54.5809 4.34674 59.3204 6.21978 63.7609C8.14554 68.3247 10.5714 72.6576 13.4732 76.6674C19.0245 84.3389 25.2341 92.1209 33.8642 96.4115C38.1307 98.5337 42.7398 99.6531 47.4544 100.182C50.2388 100.495 53.0449 100.604 55.8443 100.535C57.026 100.505 58.5699 100.666 59.7034 100.306C60.6222 100.013 60.7728 99.33 61.1049 98.4944C61.8935 96.5145 63.954 95.4397 65.3473 93.8533C66.8355 92.158 68.396 90.5618 69.9264 88.9073C73.2417 85.3236 75.4363 81.1064 78.1001 77.0595C79.574 74.8208 81.1684 72.6304 82.454 70.2736C83.4948 68.364 84.7879 65.8543 85.1509 63.7003C85.4386 61.9822 84.0596 59.4846 82.1625 59.39C81.1729 59.34 80.3806 60.1203 79.406 60.221C79.1138 60.252 78.1152 60.0507 77.7657 60.1945C79.3593 56.3141 81.7219 52.6608 83.5129 48.8841C84.5228 46.7543 85.48 44.5996 86.3687 42.416C87.045 40.754 87.8494 39.3916 86.1322 38.2109Z" fill="black"/>
<path fill-rule="evenodd" clip-rule="evenodd" d="M38.2329 125.125C36.2007 125.79 34.6916 126.302 32.4801 126.092C30.9303 125.944 29.3971 125.628 27.8527 125.432C23.8705 124.932 20.0737 123.829 16.4187 122.185C13.0961 120.691 9.98448 118.89 7.2415 116.491C5.79425 115.227 4.48646 113.837 3.20127 112.415C2.28016 111.394 1.42991 110.626 0 110.445C0.370856 112.507 0.80503 114.133 1.7872 116.007C2.57564 117.51 3.47791 118.954 4.49173 120.317C6.56386 123.101 9.10708 125.521 11.9812 127.481C14.8056 129.407 17.9828 131.043 21.3137 131.887C23.1725 132.358 25.0758 132.64 26.9579 133.001C28.7353 133.343 30.4637 133.688 32.2788 133.438C33.9771 133.205 35.7673 133.145 37.4203 132.665C38.7266 132.286 39.9711 131.453 41.0851 130.694C43.2568 129.212 40.8907 124.256 38.2329 125.125Z" fill="black"/>
</svg>
