<svg width="113" height="117" viewBox="0 0 113 117" fill="none" xmlns="http://www.w3.org/2000/svg">
<path fill-rule="evenodd" clip-rule="evenodd" d="M34.6425 61.6799C34.9433 57.7568 34.8213 53.8231 35.1054 49.9024C35.3758 46.1776 36.1266 42.3838 36.8561 38.7221C37.5986 34.9982 38.9486 31.6922 40.4652 28.235C41.3023 26.3282 42.1114 24.4085 42.9228 22.4903C43.4182 21.3138 43.7804 20.0948 45.1538 19.7809C46.9341 19.3743 49.0834 19.7041 50.9144 19.6388C52.7652 19.5727 54.6137 19.4609 56.4584 19.2968C60.4674 18.9396 64.4515 18.3521 68.4538 17.9356C72.2871 17.5374 76.078 17.3041 79.8628 16.5122C81.8105 16.1048 83.7416 15.6283 85.6734 15.1526C87.1211 14.7969 89.1272 13.8872 90.5832 14.233C88.7825 18.3438 88.2219 22.7319 88.1772 27.1809C88.1605 28.9342 87.9537 29.6517 86.1325 29.5437C83.8598 29.4092 81.578 29.1797 79.3174 28.919C75.0515 28.4258 70.8197 27.643 66.5901 26.9088C64.5856 26.5608 62.6606 26.0653 60.6939 25.629C59.2977 25.3205 58.7106 25.8753 58.2439 27.1536C57.9068 28.0785 57.7985 28.4949 56.9326 29.0171C56.2258 29.4434 55.5296 29.8477 54.878 30.3622C53.7182 31.278 52.7205 32.3785 51.8667 33.5846C49.9728 36.2575 48.7576 39.3985 47.6455 42.4613C44.8493 50.1691 43.4417 58.5526 43.1819 66.7384C43.0508 70.9009 42.3652 74.9813 42.3205 79.1574C42.2993 80.9981 42.7675 83.367 41.2342 84.7046C39.7342 86.0148 37.8077 86.9541 36.1342 88.0273C34.6675 83.8154 34.2895 79.3482 34.2448 74.9159C34.1986 70.4973 34.3054 66.0848 34.6425 61.6799ZM96.7113 39.3879C98.5438 39.8766 100.385 40.309 102.232 40.7384C99.09 48.2866 99.2006 56.6366 98.9627 64.6826C98.8574 68.2812 98.9537 71.8889 99.3067 75.4715C99.6703 79.1361 100.492 82.6344 101.23 86.2276C101.391 87.0119 101.778 88.2986 101.262 89.0183C100.691 89.8155 98.8188 90.2457 98.0075 90.6127C94.787 92.0689 91.6158 93.6474 88.3295 94.9538C84.9977 96.2785 81.5363 97.0734 78.2787 98.6124C75.0901 100.118 71.8591 101.498 68.5394 102.688C65.2773 103.859 61.8917 104.717 58.7432 106.189C55.7568 107.585 53.2917 109.502 50.7546 111.571C49.2122 106.769 48.6107 101.883 48.3319 96.8492C48.0644 92.0316 47.6705 87.0165 48.1614 82.2095C48.3849 80.0162 48.3857 77.9764 48.3417 75.78C48.3023 73.8147 48.7553 71.8873 48.9114 69.9319C49.2553 65.6227 49.2417 61.3189 49.8235 57.0265C50.9258 48.9083 53.1129 40.3151 57.525 33.3558C57.8061 32.912 58.0811 32.1961 58.4689 31.8685C59.1227 31.3176 58.8909 31.4209 59.7508 31.8647C60.553 32.2774 61.3439 32.7167 62.1727 33.0777C63.9114 33.8362 65.7719 34.1698 67.5863 34.6866C69.5954 35.2589 71.4189 36.1359 73.5045 36.4604C75.525 36.7743 77.578 36.8123 79.5977 37.1307C80.7143 37.307 81.7393 37.6771 82.8257 37.9553C83.7105 38.1818 84.5772 38.1217 85.5083 38.2198C87.3075 38.4105 89.059 38.9152 90.8628 39.0786C92.8915 39.2625 94.6976 38.8513 96.7113 39.3879ZM30.2319 74.4348C30.8539 79.4044 32.1796 84.2721 34.113 88.8906C34.7342 90.3756 35.4349 92.4542 37.2107 92.8646C38.8486 93.2431 40.8334 92.0362 42.3773 91.6129C43.5872 98.8244 44.1167 106.318 47.3273 113.002C47.7326 113.846 48.2667 115.419 49.1008 115.971C49.9523 116.536 50.9879 115.985 51.8371 115.661C55.4046 114.306 59.0886 113.439 62.7803 112.501C64.5803 112.044 66.4144 111.637 68.1712 111.025C69.6303 110.517 71.0091 109.907 72.5378 109.629C75.7325 109.05 78.7007 108.002 81.7545 106.921C88.1643 104.652 94.6082 102.597 100.523 99.1892C103.346 97.5629 106.307 95.9692 108.914 94.0053C111.052 92.3949 113.444 89.9812 112.396 87.0567C112.079 86.1721 111.212 84.7084 110.213 84.4386C109.276 84.184 108.434 85.0344 107.576 85.2305C106.279 85.5276 106.57 84.4789 106.45 83.4552C106.355 82.6488 106.256 81.8425 106.158 81.0353C105.954 79.3421 105.752 77.6473 105.601 75.948C104.977 68.9082 105.27 61.873 105.264 54.8218C105.261 51.2916 106.076 48.1969 106.898 44.796C107.334 42.9918 107.741 41.1799 108.124 39.3643C108.336 38.3551 108.583 37.247 108.292 36.2256C107.638 33.9357 104.384 33.3026 102.457 32.6506C100.801 32.0897 99.1203 31.6025 97.4059 31.259C96.4658 31.0713 93.9552 31.218 93.3476 30.4268C92.7461 29.6441 93.412 27.1026 93.4726 26.1709C93.5855 24.4548 93.7037 22.7403 93.9294 21.0341C94.2923 18.2822 94.2529 15.7302 92.0628 13.7177C93.4287 12.6264 94.3984 10.3107 92.412 9.3052C90.1272 8.14773 87.0696 7.97977 84.656 8.587C82.0166 9.25124 79.1196 9.2596 76.4166 9.54991C73.5401 9.85771 70.6719 10.2324 67.8015 10.5957C62.8636 11.2219 57.8341 11.3594 52.9561 12.3642C50.5137 12.8665 48.069 13.2488 45.6069 13.6387C43.0569 14.0415 41.5198 14.3842 39.9933 16.5411C37.1008 20.6321 34.4296 24.8242 32.8054 29.6C31.2675 34.1242 30.5493 38.8779 30.1221 43.6241C29.6622 48.7396 29.5584 53.8406 29.616 58.9736C29.6736 64.1354 29.5895 69.3003 30.2319 74.4348Z" fill="black"/>
<path fill-rule="evenodd" clip-rule="evenodd" d="M4.22883 52.6212C5.23903 53.9777 7.40739 53.9853 7.26329 51.9977C7.13307 50.1749 6.56824 48.3786 5.98107 46.6613C5.38235 44.9084 5.50565 43.0035 5.47097 41.1731C5.39006 36.8021 5.53261 32.5678 6.35172 28.2652C7.13846 24.1243 7.64625 19.9333 8.56706 15.8167C9.47016 11.7769 11.1061 7.95803 12.114 3.95235C12.426 2.71511 12.6765 0.300611 10.8695 0.0180722C9.36691 -0.216618 8.48154 1.89407 7.89976 2.89131C5.96335 6.20811 3.87514 9.27503 2.72624 12.9708C1.69061 16.3005 0.908492 19.8452 0.545559 23.3131C0.164903 26.9482 0.221921 30.6204 0 34.2661C0.362933 38.5019 0.170298 43.1904 1.52802 47.2507C2.14062 49.0789 3.06914 51.0635 4.22883 52.6212Z" fill="black"/>
</svg>
