<svg width="99" height="92" viewBox="0 0 99 92" fill="none" xmlns="http://www.w3.org/2000/svg">
<path fill-rule="evenodd" clip-rule="evenodd" d="M46.5512 45.8215C46.8435 45.3244 47.731 45.2022 48.1979 45.0148C48.9351 44.7188 49.6336 44.3485 50.3199 43.9515C53.7569 41.9631 57.1096 39.9322 60.2854 37.5378C61.0636 36.9512 62.9776 34.7958 64.1043 35.1366C64.657 35.3043 64.9585 36.2234 65.1976 36.6719C65.6167 37.4612 66.0517 38.2383 66.5255 38.9965C68.3954 41.9889 70.7255 44.674 73.3281 47.051C78.2197 51.5188 83.7939 54.4042 90.5047 54.7495C86.1711 60.6532 82.0295 66.8203 77.1075 72.2572C74.6241 75.0023 71.9 77.4832 69.3209 80.1311C68.8806 80.5834 68.6437 80.8544 68.0637 81.1139C67.5026 81.3644 66.9681 81.4464 66.5042 81.9085C65.6972 82.7138 65.6402 83.9121 65.8217 84.9754C61.2413 85.1514 56.2828 83.0963 52.1269 81.4107C49.6875 80.4203 47.2808 79.3183 44.9902 78.0175C43.433 77.1334 41.6914 76.1468 40.5503 74.7276C44.7503 72.488 48.9966 70.3577 53.0212 67.8069C55.7696 66.0659 60.6256 64.0327 60.2331 60.0135C60.1716 59.3889 59.9271 58.6216 59.3744 58.2596C58.5567 57.7261 58.3707 58.356 57.6274 58.5176C56.4203 58.7795 54.9952 57.1811 54.0743 56.4936C51.584 54.6327 49.1515 52.5775 47.674 49.7862C47.2322 48.9506 45.9817 46.7907 46.5512 45.8215ZM20.9708 81.4099C21.6518 79.1848 18.4699 77.4711 17.0653 76.4002C14.9585 74.7936 13.4932 73.0139 12.0757 70.769C6.5471 62.0102 4.58831 51.3412 5.04157 41.0995C5.16684 38.2573 5.48875 35.4197 5.55404 32.576C5.58821 31.0991 5.49254 29.7239 5.81521 28.266C6.12042 26.8878 6.48484 25.524 6.82194 24.1534C7.49613 21.4197 7.84157 18.6193 8.64634 15.9175C9.39342 13.4146 10.4115 10.9997 11.6043 8.6781C12.3992 7.12837 13.1394 4.95631 15.2166 5.25305C17.8116 5.62492 20.349 6.96443 22.8764 7.6634C25.6749 8.4375 28.5053 9.08412 31.3311 9.7497C34.0643 10.3933 36.736 11.3078 39.4874 11.8633C40.9261 12.154 42.3481 12.2724 43.8134 12.2473C44.4519 12.236 45.5999 12.1745 45.6621 13.051C45.7312 14.0096 44.2636 15.05 43.6608 15.6375C42.8097 16.4662 42.1849 17.2464 41.7195 18.3476C40.611 20.9697 39.6066 23.7049 39.1958 26.5326C38.7965 29.283 38.8648 32.1753 38.8344 34.9507C38.7729 40.5493 39.5648 45.9103 41.5692 51.1545C43.3845 55.8993 46.2285 59.1718 50.1218 62.3403C46.0539 64.3705 41.986 66.4029 37.9173 68.43C34.2518 70.256 30.546 71.8315 27.4127 74.5295C26.1228 75.6405 24.5968 76.9224 23.6759 78.3712C22.5249 80.1812 24.1443 81.4114 25.8609 80.6874C27.7506 79.8913 29.6069 78.9814 31.4563 78.0972C32.6597 77.5219 34.6686 75.9805 36.0724 76.0192C37.2651 76.0526 37.7184 77.5811 38.2491 78.4288C39.0994 79.7835 40.1593 80.991 41.3277 82.0801C43.783 84.3697 46.662 86.2845 49.6898 87.7265C53.0303 89.3179 56.6374 90.4055 60.2832 91.0286C62.2716 91.3678 64.2926 91.5469 66.3091 91.471C67.8222 91.4141 69.9647 91.4103 71.3306 90.6696C72.5058 90.0321 71.8894 88.732 73.0533 88.0649C74.2786 87.3645 75.5754 86.8416 76.759 86.0538C79.556 84.1929 81.2164 81.7947 82.8571 78.9259C86.6258 72.3377 91.2092 66.3164 94.0282 59.2151C94.688 57.5515 95.0653 55.5904 96.1442 54.1386C96.8624 53.174 98.4651 52.5995 98.6397 51.3329C98.809 50.095 98.3125 47.3584 97.0856 46.7861C95.6666 46.1251 93.6053 46.1152 92.0649 45.7555C85.3746 44.1898 79.1331 41.806 73.8011 37.3686C72.4664 36.259 71.2114 35.0576 70.0262 33.791C69.1478 32.8522 68.2269 31.8641 68.4068 30.479C68.5663 29.2473 69.551 27.4494 67.5406 27.1041C66.1922 26.8726 64.3382 27.5853 63.2388 28.2804C59.9446 30.3652 56.8841 32.8735 53.7394 35.1753C50.8711 37.2745 47.9329 39.2735 45.0183 41.3067C45.3584 36.4753 45.2013 31.238 46.3484 26.5205C46.9095 24.2171 47.8881 22.0443 49.1454 20.0408C50.4376 17.9848 51.4679 15.831 52.5976 13.6862C53.2262 14.052 54.2542 14.8694 54.8289 13.8957C55.1865 13.2909 54.936 11.6979 54.8008 11.0019C53.8002 5.84426 45.9855 5.32742 41.9564 4.44782C36.1612 3.18193 30.3737 1.65194 24.508 0.753372C21.7991 0.338239 19.113 0.255509 16.3866 0.0893039C14.9881 0.00354557 13.3581 -0.308366 12.5115 1.11007C12.2845 1.49105 12.2519 2.03368 12.0044 2.33649C11.7774 2.61501 11.1161 2.88671 10.8048 3.13792C9.90209 3.86573 9.12237 4.72256 8.43984 5.65831C7.04211 7.57309 6.08398 9.77625 5.15849 11.946C2.92638 17.1796 1.65848 22.735 0.962279 28.3685C0.248612 34.1432 -0.248677 40.1136 0.130933 45.9301C0.829415 56.6378 3.73191 67.5291 10.4601 76.086C12.0029 78.0479 13.6838 79.6538 15.9068 80.8225C16.9826 81.3887 20.3634 83.3907 20.9708 81.4099Z" fill="black"/>
</svg>
