<svg width="107" height="66" viewBox="0 0 107 66" fill="none" xmlns="http://www.w3.org/2000/svg">
<path fill-rule="evenodd" clip-rule="evenodd" d="M70.5166 5.49868C73.6475 12.7458 78.682 18.523 83.8229 24.405C86.5424 27.5181 89.3193 30.3449 92.6177 32.85C95.6875 35.1811 98.795 37.4564 101.895 39.7461C98.7844 43.7528 95.2897 47.4166 91.8237 51.1204C88.6219 54.5417 85.4306 58.0391 83.3209 62.265C83.102 60.2421 81.7925 58.9922 80.027 58.1672C77.823 57.138 75.7972 56.0192 73.883 54.5018C69.8207 51.2817 66.0414 47.4453 62.5822 43.5945C55.546 35.762 51.0618 25.9111 46.173 16.699C54.287 12.9658 62.4026 9.23262 70.5166 5.49868ZM44.5102 23.7811C45.6982 27.1293 47.4207 30.3525 48.9959 33.5334C50.5485 36.6676 52.1578 39.783 53.9715 42.7771C57.4179 48.4661 61.6304 53.7687 67.003 57.7596C69.6328 59.7132 72.4527 61.66 75.3782 63.148C76.761 63.851 78.2782 64.3851 79.8519 64.2955C80.8158 64.2405 82.1495 63.3846 82.8967 64.1478C83.6621 64.9298 83.4085 66.4939 85.0155 65.7353C86.3348 65.1114 87.495 63.7847 88.4649 62.7442C90.9353 60.0974 93.4156 57.4348 95.7871 54.6992C98.0855 52.0479 99.9732 49.0267 101.914 46.111C102.985 44.5009 104.045 42.8841 105.107 41.268C105.867 40.1115 106.949 38.9542 106.892 37.4896C106.784 34.6319 103.288 32.6941 101.301 31.1051C98.8659 29.1568 96.6046 27.1557 94.5311 24.8246C92.3249 22.3436 89.5465 20.2664 87.1591 17.9376C84.5671 15.4107 82.2257 12.6614 79.9025 9.89111C78.0585 7.69189 76.2304 5.43766 74.668 3.02974C73.4475 1.1477 72.07 -0.296615 69.629 0.0522173C67.7186 0.495227 65.8029 0.810162 63.962 1.51385C62.1105 2.22131 60.3284 3.11487 58.5297 3.94513C55.269 5.44971 52.2695 7.35284 49.1024 9.02543C48.3846 9.4044 47.6735 9.79618 47.0221 10.2829C46.6629 10.5511 46.2983 11.0687 45.9164 11.2608C45.6333 11.4025 45.4386 11.3701 45.114 11.462C43.8309 11.8229 43.3471 12.5401 42.7055 13.6695C41.6744 15.4852 41.7031 16.4609 42.6466 18.3219C43.5093 20.0223 43.8731 21.988 44.5102 23.7811Z" fill="black"/>
<path fill-rule="evenodd" clip-rule="evenodd" d="M0.478894 34.4743C0.904173 36.1455 1.3856 37.8039 1.99956 39.4164C3.1878 42.5312 4.72419 45.5243 6.62148 48.265C9.75192 52.788 13.8842 57.0842 18.3683 60.265C19.8471 61.3143 23.4365 64.2465 25.3577 63.2679C27.9858 61.9294 24.469 58.5135 23.4013 57.5138C21.1993 55.4491 19.01 53.3686 16.7833 51.3301C14.5498 49.2849 12.8884 46.6644 11.1266 44.2151C9.3521 41.7478 7.61804 39.2489 6.01126 36.6675C5.17942 35.3328 4.45465 33.932 3.6288 32.5959C2.91451 31.4399 1.85506 30.6468 0.934869 29.6719C0.168918 30.0377 0.258015 29.9738 0.0610989 30.6701C-0.0235076 30.969 0.00269711 31.5774 0.00793823 31.8523C0.0229128 32.7558 0.256521 33.603 0.478894 34.4743Z" fill="black"/>
</svg>
